<svg id="visual" viewBox="0 0 960 540" width="960" height="540" xmlns="http://www.w3.org/2000/svg" xmlns:xlink="http://www.w3.org/1999/xlink" version="1.1"><rect x="0" y="0" width="960" height="540" fill="#1c1c1c"></rect><path d="M0 115L14.5 108.2C29 101.3 58 87.7 87.2 91.5C116.3 95.3 145.7 116.7 174.8 122.8C204 129 233 120 262 112.8C291 105.7 320 100.3 349 98.8C378 97.3 407 99.7 436.2 104.7C465.3 109.7 494.7 117.3 523.8 119.5C553 121.7 582 118.3 611 109.8C640 101.3 669 87.7 698 91.5C727 95.3 756 116.7 785.2 126C814.3 135.3 843.7 132.7 872.8 123.2C902 113.7 931 97.3 945.5 89.2L960 81L960 0L945.5 0C931 0 902 0 872.8 0C843.7 0 814.3 0 785.2 0C756 0 727 0 698 0C669 0 640 0 611 0C582 0 553 0 523.8 0C494.7 0 465.3 0 436.2 0C407 0 378 0 349 0C320 0 291 0 262 0C233 0 204 0 174.8 0C145.7 0 116.3 0 87.2 0C58 0 29 0 14.5 0L0 0Z" fill="#c4e337"></path><path d="M0 84L14.5 83.7C29 83.3 58 82.7 87.2 82C116.3 81.3 145.7 80.7 174.8 76.2C204 71.7 233 63.3 262 62.8C291 62.3 320 69.7 349 71.2C378 72.7 407 68.3 436.2 67.2C465.3 66 494.7 68 523.8 73.5C553 79 582 88 611 88.2C640 88.3 669 79.7 698 74C727 68.3 756 65.7 785.2 64.2C814.3 62.7 843.7 62.3 872.8 62.7C902 63 931 64 945.5 64.5L960 65L960 0L945.5 0C931 0 902 0 872.8 0C843.7 0 814.3 0 785.2 0C756 0 727 0 698 0C669 0 640 0 611 0C582 0 553 0 523.8 0C494.7 0 465.3 0 436.2 0C407 0 378 0 349 0C320 0 291 0 262 0C233 0 204 0 174.8 0C145.7 0 116.3 0 87.2 0C58 0 29 0 14.5 0L0 0Z" fill="#99d133"></path><path d="M0 32L14.5 38.5C29 45 58 58 87.2 64.2C116.3 70.3 145.7 69.7 174.8 70.2C204 70.7 233 72.3 262 74.2C291 76 320 78 349 72.3C378 66.7 407 53.3 436.2 46.3C465.3 39.3 494.7 38.7 523.8 37.7C553 36.7 582 35.3 611 42C640 48.7 669 63.3 698 70.5C727 77.7 756 77.3 785.2 71.5C814.3 65.7 843.7 54.3 872.8 49.8C902 45.3 931 47.7 945.5 48.8L960 50L960 0L945.5 0C931 0 902 0 872.8 0C843.7 0 814.3 0 785.2 0C756 0 727 0 698 0C669 0 640 0 611 0C582 0 553 0 523.8 0C494.7 0 465.3 0 436.2 0C407 0 378 0 349 0C320 0 291 0 262 0C233 0 204 0 174.8 0C145.7 0 116.3 0 87.2 0C58 0 29 0 14.5 0L0 0Z" fill="#6ebd31"></path><path d="M0 51L14.5 48.3C29 45.7 58 40.3 87.2 34.8C116.3 29.3 145.7 23.7 174.8 22.5C204 21.3 233 24.7 262 24.7C291 24.7 320 21.3 349 21.5C378 21.7 407 25.3 436.2 26.7C465.3 28 494.7 27 523.8 31C553 35 582 44 611 46.7C640 49.3 669 45.7 698 43.8C727 42 756 42 785.2 40C814.3 38 843.7 34 872.8 29.8C902 25.7 931 21.3 945.5 19.2L960 17L960 0L945.5 0C931 0 902 0 872.8 0C843.7 0 814.3 0 785.2 0C756 0 727 0 698 0C669 0 640 0 611 0C582 0 553 0 523.8 0C494.7 0 465.3 0 436.2 0C407 0 378 0 349 0C320 0 291 0 262 0C233 0 204 0 174.8 0C145.7 0 116.3 0 87.2 0C58 0 29 0 14.5 0L0 0Z" fill="#3fa931"></path></svg>